# xmcd
#
# Track frame offsets:
# 150
# 17680
# 34844
# 48031
# 62736
# 78839
# 89645
#
# Disc length: 1421 seconds
#
#
# Revision: 0
# Processed by: cddbd v1.5.2PL0 Copyright (c) Steve Scherf et al.
# Submitted via: FreeRIP 2.951 
#
DISCID=4c058b07
DTITLE=Amy Winehouse - CD BONUS
DYEAR=2007
DGENRE=Blues
TTITLE0=VALERIE
TTITLE1=CUPID
TTITLE2=MONKEY MAN
TTITLE3=SOME UNHOLY WAR
TTITLE4=HEY LITTLE RICH GIRL Feat.ZALON and ADE
TTITLE5=TO KNOW HIM IS TO LOVE HIM
TTITLE6=LOVE IS A LOSING GAME - ORIGINAL DEMO
EXTD=
EXTT0=
EXTT1=
EXTT2=
EXTT3=
EXTT4=
EXTT5=
EXTT6=
PLAYORDER=
